<svg width="360" height="3375" viewBox="0 0 360 3375" fill="none" xmlns="http://www.w3.org/2000/svg">
<path fill-rule="evenodd" clip-rule="evenodd" d="M-246 1.99988L1106.5 723.686L1107.44 721.921L-245.058 0.235363L-246 1.99988ZM-246 133L1282.07 948.369L1283.01 946.604L-245.058 131.235L-246 133ZM277.118 1319.54C290.003 1282.24 297 1242.18 297 1200.5C297 999.192 133.808 836 -67.5 836C-268.808 836 -432 999.192 -432 1200.5C-432 1401.81 -268.808 1565 -67.5 1565C50.0399 1565 154.585 1509.36 221.24 1422.99L-281 1155L-280.058 1153.24L222.474 1421.38C245.358 1391.39 263.694 1357.73 276.452 1321.45L-281 1024L-280.058 1022.24L277.118 1319.54ZM-67.5 1567C50.8055 1567 156.019 1510.95 223.029 1423.95L243.589 1434.92C172.495 1529.11 59.6079 1590 -67.5 1590C-282.615 1590 -457 1415.61 -457 1200.5C-457 985.385 -282.615 811 -67.5 811C147.615 811 322 985.385 322 1200.5C322 1246.44 314.046 1290.53 299.439 1331.45L278.905 1320.49C291.927 1282.9 299 1242.53 299 1200.5C299 998.088 134.912 834 -67.5 834C-269.912 834 -434 998.088 -434 1200.5C-434 1402.91 -269.912 1567 -67.5 1567ZM301.224 1332.4C315.969 1291.19 324 1246.78 324 1200.5C324 984.28 148.719 809 -67.5 809C-283.719 809 -459 984.28 -459 1200.5C-459 1416.72 -283.719 1592 -67.5 1592C60.3732 1592 173.928 1530.69 245.375 1435.87L1247.07 1970.37L1248.01 1968.6L246.588 1434.25C269.134 1404.01 287.414 1370.39 300.538 1334.3L1071.5 1745.69L1072.44 1743.92L301.224 1332.4ZM298.755 1333.35L278.238 1322.41C265.451 1358.67 247.119 1392.32 224.262 1422.34L244.804 1433.3C267.373 1403.07 285.657 1369.46 298.755 1333.35ZM-251 1631.59L-249.293 1633.29L348.707 2231.29L349.414 2232L348.707 2232.71L259.914 2321.5L348.707 2410.29L349.414 2411L348.707 2411.71L-249.293 3009.71L-250.91 3011.32L-250.999 3009.04L-257.749 2836.79L-257.766 2836.35L-257.457 2836.04L257.086 2321.5L-250.707 1813.71L-251 1813.41V1813V1634V1631.59ZM258.5 2320.09L346.586 2232L-249 1636.41V1812.59L258.5 2320.09ZM258.5 2322.91L-255.734 2837.15L-249.09 3006.68L346.586 2411L258.5 2322.91ZM1156.69 3372.71L1158.4 3374.41V3372V3223.46V3223.05L1158.1 3222.76L736.708 2801.5L1163.71 2374.64L1164.02 2374.33L1164 2373.9L1158.4 2230.96L1158.31 2228.68L1156.69 2230.29L660.293 2726.52L659.585 2727.23L660.293 2727.94L733.879 2801.5L660.293 2875.06L659.585 2875.77L660.293 2876.48L1156.69 3372.71ZM662.414 2875.77L735.293 2802.91L1156.4 3223.88V3369.59L662.414 2875.77ZM1161.98 2373.54L735.293 2800.09L662.414 2727.23L1156.49 2233.32L1161.98 2373.54Z" fill="#41444F"/>
</svg>
