<svg width="1280" height="3375" viewBox="0 0 1280 3375" fill="none" xmlns="http://www.w3.org/2000/svg">
<path fill-rule="evenodd" clip-rule="evenodd" d="M-21 1.99987L1331.5 723.686L1332.44 721.921L-20.0585 0.235352L-21 1.99987ZM-21 133L1507.07 948.369L1508.01 946.604L-20.0585 131.235L-21 133ZM502.118 1319.54C515.003 1282.24 522 1242.18 522 1200.5C522 999.192 358.808 836 157.5 836C-43.8078 836 -207 999.192 -207 1200.5C-207 1401.81 -43.8078 1565 157.5 1565C275.04 1565 379.585 1509.36 446.24 1422.99L-56 1155L-55.0585 1153.24L447.474 1421.38C470.358 1391.39 488.694 1357.73 501.452 1321.45L-56 1024L-55.0585 1022.24L502.118 1319.54ZM157.5 1567C275.805 1567 381.019 1510.95 448.029 1423.95L468.589 1434.92C397.495 1529.11 284.608 1590 157.5 1590C-57.6149 1590 -232 1415.61 -232 1200.5C-232 985.385 -57.6149 811 157.5 811C372.615 811 547 985.385 547 1200.5C547 1246.44 539.046 1290.53 524.439 1331.45L503.905 1320.49C516.927 1282.9 524 1242.53 524 1200.5C524 998.088 359.912 834 157.5 834C-44.9124 834 -209 998.088 -209 1200.5C-209 1402.91 -44.9124 1567 157.5 1567ZM526.224 1332.4C540.969 1291.19 549 1246.78 549 1200.5C549 984.28 373.719 809 157.5 809C-58.7195 809 -234 984.28 -234 1200.5C-234 1416.72 -58.7195 1592 157.5 1592C285.373 1592 398.928 1530.69 470.375 1435.87L1472.07 1970.37L1473.01 1968.6L471.588 1434.25C494.134 1404.01 512.414 1370.39 525.538 1334.3L1296.5 1745.69L1297.44 1743.92L526.224 1332.4ZM523.755 1333.35L503.238 1322.41C490.451 1358.67 472.119 1392.32 449.262 1422.34L469.804 1433.3C492.373 1403.07 510.657 1369.46 523.755 1333.35ZM-26 1631.59L-24.2929 1633.29L573.707 2231.29L574.414 2232L573.707 2232.71L484.914 2321.5L573.707 2410.29L574.414 2411L573.707 2411.71L-24.2929 3009.71L-25.9097 3011.32L-25.9992 3009.04L-32.7492 2836.79L-32.7664 2836.35L-32.4571 2836.04L482.086 2321.5L-25.7071 1813.71L-26 1813.41V1813V1634V1631.59ZM483.5 2320.09L571.586 2232L-24 1636.41V1812.59L483.5 2320.09ZM483.5 2322.91L-30.7336 2837.15L-24.0903 3006.68L571.586 2411L483.5 2322.91ZM1381.69 3372.71L1383.4 3374.41V3372V3223.46V3223.05L1383.1 3222.76L961.708 2801.5L1388.71 2374.64L1389.02 2374.33L1389 2373.9L1383.4 2230.96L1383.31 2228.68L1381.69 2230.29L885.293 2726.52L884.585 2727.23L885.293 2727.94L958.879 2801.5L885.293 2875.06L884.585 2875.77L885.293 2876.48L1381.69 3372.71ZM887.414 2875.77L960.293 2802.91L1381.4 3223.88V3369.59L887.414 2875.77ZM1386.98 2373.54L960.293 2800.09L887.414 2727.23L1381.49 2233.32L1386.98 2373.54Z" fill="#41444F"/>
</svg>
