<svg width="1920" height="3497" viewBox="0 0 1920 3497" fill="none" xmlns="http://www.w3.org/2000/svg">
<path opacity="0.2" fill-rule="evenodd" clip-rule="evenodd" d="M440 1.76439L1792.5 723.45L1793.44 721.686L440.942 -0.00012207L440 1.76439ZM1915.22 3494.71L1916.93 3496.41V3494V3386.08V3385.66L1916.63 3385.37L1610.43 3079.5L1920.71 2769.56L1921.02 2769.25L1921 2768.81L1916.93 2664.96L1916.84 2662.68L1915.22 2664.29L1554.29 3024.83L1553.58 3025.54L1554.29 3026.25L1607.6 3079.5L1554.29 3132.75L1553.58 3133.46L1554.29 3134.17L1915.22 3494.71ZM1556.41 3133.46L1609.02 3080.91L1914.93 3386.49V3491.59L1556.41 3133.46ZM1918.98 2768.45L1609.02 3078.09L1556.41 3025.54L1915.02 2667.32L1918.98 2768.45ZM1968.07 948.133L440 132.764L440.942 131L1969.01 946.369L1968.07 948.133ZM2080 2065.5C2080 2266.81 1916.81 2430 1715.5 2430C1514.19 2430 1351 2266.81 1351 2065.5C1351 2014.29 1361.56 1965.55 1380.62 1921.34L1543.53 2008.27L1544.47 2006.5L1381.42 1919.5C1396.84 1884.26 1417.68 1851.92 1442.87 1823.55L1508.24 1858.43L1509.18 1856.67L1444.24 1822.02C1510.97 1747.73 1607.78 1701 1715.5 1701C1916.81 1701 2080 1864.19 2080 2065.5ZM1442.43 1821.05C1509.53 1746.14 1607.01 1699 1715.5 1699C1917.91 1699 2082 1863.09 2082 2065.5C2082 2267.91 1917.91 2432 1715.5 2432C1513.09 2432 1349 2267.91 1349 2065.5C1349 2013.95 1359.64 1964.89 1378.85 1920.39L1358.49 1909.53C1337.59 1957.28 1326 2010.04 1326 2065.5C1326 2280.61 1500.39 2455 1715.5 2455C1930.61 2455 2105 2280.61 2105 2065.5C2105 1850.39 1930.61 1676 1715.5 1676C1598.18 1676 1492.98 1727.87 1421.57 1809.92L1442.43 1821.05ZM1441.06 1822.59L1420.23 1811.47C1395.49 1840.2 1374.87 1872.58 1359.29 1907.69L1379.65 1918.55C1395.08 1883.32 1415.9 1850.99 1441.06 1822.59ZM1357.53 1906.75C1373.12 1871.64 1393.72 1839.26 1418.42 1810.51L525.538 1334.07C512.414 1370.16 494.134 1403.77 471.588 1434.02L1357.53 1906.75ZM1419.76 1808.95C1491.54 1726.28 1597.42 1674 1715.5 1674C1931.72 1674 2107 1849.28 2107 2065.5C2107 2281.72 1931.72 2457 1715.5 2457C1499.28 2457 1324 2281.72 1324 2065.5C1324 2009.7 1335.68 1956.62 1356.72 1908.58L470.375 1435.63C398.928 1530.46 285.373 1591.76 157.5 1591.76C-58.7195 1591.76 -234 1416.48 -234 1200.26C-234 984.045 -58.7195 808.765 157.5 808.765C373.719 808.765 549 984.045 549 1200.26C549 1246.55 540.969 1290.95 526.224 1332.17L1419.76 1808.95ZM157.5 1589.76C284.608 1589.76 397.495 1528.88 468.589 1434.68L448.029 1423.71C381.019 1510.71 275.805 1566.76 157.5 1566.76C-44.9124 1566.76 -209 1402.68 -209 1200.26C-209 997.852 -44.9124 833.765 157.5 833.765C359.912 833.765 524 997.852 524 1200.26C524 1242.29 516.927 1282.66 503.905 1320.26L524.439 1331.22C539.046 1290.29 547 1246.21 547 1200.26C547 985.15 372.615 810.765 157.5 810.765C-57.6149 810.765 -232 985.15 -232 1200.26C-232 1415.38 -57.6149 1589.76 157.5 1589.76ZM469.804 1433.06C492.373 1402.83 510.657 1369.22 523.755 1333.12L503.238 1322.17C490.451 1358.44 472.119 1392.09 449.262 1422.1L469.804 1433.06ZM446.24 1422.76C379.585 1509.13 275.04 1564.76 157.5 1564.76C-43.8078 1564.76 -207 1401.57 -207 1200.26C-207 998.957 -43.8078 835.765 157.5 835.765C358.808 835.765 522 998.957 522 1200.26C522 1241.95 515.003 1282 502.118 1319.31L-55.0585 1022L-56 1023.76L501.452 1321.22C488.694 1357.5 470.358 1391.15 447.474 1421.15L-55.0585 1153L-56 1154.76L446.24 1422.76ZM-10.25 2028.59L-8.54289 2030.29L589.457 2628.29L590.164 2629L589.457 2629.71L500.664 2718.5L589.457 2807.29L590.164 2808L589.457 2808.71L-8.54289 3406.71L-10.1597 3408.32L-10.2492 3406.04L-16.9992 3233.79L-17.0164 3233.35L-16.7071 3233.04L497.836 2718.5L-9.95711 2210.71L-10.25 2210.41V2210V2031V2028.59ZM499.25 2717.09L587.336 2629L-8.25 2033.41V2209.59L499.25 2717.09ZM499.25 2719.91L-14.9836 3234.15L-8.3403 3403.68L587.336 2808L499.25 2719.91Z" fill="white"/>
</svg>
