<svg width="1779" height="2870" viewBox="0 0 1779 2870" fill="none" xmlns="http://www.w3.org/2000/svg">
<path fill-rule="evenodd" clip-rule="evenodd" d="M702.589 625.917C631.495 720.115 518.608 781 391.5 781C176.385 781 2 606.615 2 391.5C2 176.385 176.385 2 391.5 2C606.615 2 781 176.385 781 391.5C781 437.442 773.046 481.527 758.439 522.452L737.905 511.495C750.927 473.899 758 433.526 758 391.5C758 189.088 593.912 25 391.5 25C189.088 25 25 189.088 25 391.5C25 593.912 189.088 758 391.5 758C509.805 758 615.019 701.945 682.029 614.947L702.589 625.917ZM704.375 626.87L1777.53 1199.5L1778.47 1197.74L705.588 625.251C728.134 595.006 746.414 561.393 759.538 525.305L1742.24 1049.67L1743.18 1047.91L760.224 523.404C774.969 482.19 783 437.783 783 391.5C783 175.281 607.719 0 391.5 0C175.281 0 0 175.281 0 391.5C0 607.719 175.281 783 391.5 783C519.373 783 632.928 721.694 704.375 626.87ZM757.755 524.354C744.657 560.455 726.373 594.07 703.804 624.299L683.262 613.337C706.119 583.321 724.451 549.671 737.238 513.406L757.755 524.354ZM391.5 756C509.04 756 613.585 700.365 680.24 613.992L178 346L178.942 344.235L681.474 612.384C704.358 582.387 722.694 548.734 735.452 512.453L178 215L178.942 213.235L736.118 510.542C749.003 473.236 756 433.185 756 391.5C756 190.192 592.808 27 391.5 27C190.192 27 27 190.192 27 391.5C27 592.808 190.192 756 391.5 756ZM226.457 1491.29L224.75 1489.59V1492V1671V1671.41L225.043 1671.71L732.836 2179.5L218.293 2694.04L217.984 2694.35L218.001 2694.79L224.751 2867.04L224.84 2869.32L226.457 2867.71L824.457 2269.71L825.164 2269L824.457 2268.29L735.664 2179.5L824.457 2090.71L825.164 2090L824.457 2089.29L226.457 1491.29ZM822.336 2090L734.25 2178.09L226.75 1670.59V1494.41L822.336 2090ZM220.016 2695.15L734.25 2180.91L822.336 2269L226.66 2864.68L220.016 2695.15Z" fill="#41444F"/>
</svg>
