<svg width="1667" height="3497" viewBox="0 0 1667 3497" fill="none" xmlns="http://www.w3.org/2000/svg">
<path fill-rule="evenodd" clip-rule="evenodd" d="M1352.5 723.45L0 1.7644L0.941534 -0.000110745L1353.44 721.686L1352.5 723.45ZM1476.93 3496.41L1475.22 3494.71L1114.29 3134.17L1113.58 3133.46L1114.29 3132.75L1167.6 3079.5L1114.29 3026.25L1113.58 3025.54L1114.29 3024.83L1475.22 2664.29L1476.84 2662.68L1476.93 2664.96L1481 2768.81L1481.02 2769.25L1480.71 2769.56L1170.43 3079.5L1476.63 3385.37L1476.93 3385.66V3386.08V3494V3496.41ZM1169.02 3080.91L1116.41 3133.46L1474.93 3491.59V3386.49L1169.02 3080.91ZM1169.02 3078.09L1478.98 2768.45L1475.02 2667.32L1116.41 3025.54L1169.02 3078.09ZM0 132.764L1528.07 948.133L1529.01 946.369L0.941534 131L0 132.764ZM1275.5 2430C1476.81 2430 1640 2266.81 1640 2065.5C1640 1864.19 1476.81 1701 1275.5 1701C1074.19 1701 911 1864.19 911 2065.5C911 2266.81 1074.19 2430 1275.5 2430ZM1275.5 2432C1477.91 2432 1642 2267.91 1642 2065.5C1642 1863.09 1477.91 1699 1275.5 1699C1073.09 1699 909 1863.09 909 2065.5C909 2267.91 1073.09 2432 1275.5 2432ZM1665 2065.5C1665 2280.61 1490.61 2455 1275.5 2455C1060.39 2455 886 2280.61 886 2065.5C886 1850.39 1060.39 1676 1275.5 1676C1490.61 1676 1665 1850.39 1665 2065.5ZM1667 2065.5C1667 2281.72 1491.72 2457 1275.5 2457C1059.28 2457 884 2281.72 884 2065.5C884 1849.28 1059.28 1674 1275.5 1674C1491.72 1674 1667 1849.28 1667 2065.5Z" fill="#41444F"/>
</svg>
