<svg width="266" height="12" viewBox="0 0 266 12" fill="none" xmlns="http://www.w3.org/2000/svg">
<path fill-rule="evenodd" clip-rule="evenodd" d="M30.0605 1.79985e-05C30.0605 1.79985e-05 35.2837 3.59788 36.8071 3.59787L86.8622 3.59787C86.8622 3.59787 89.4738 5.50261 90.1267 5.50261L133 5.50261L175.873 5.50261C176.526 5.50261 179.138 3.59787 179.138 3.59787L229.193 3.59787C230.716 3.59788 235.939 1.79985e-05 235.939 1.79985e-05L133 0L30.0605 1.79985e-05ZM2.39394 2.58879e-05C2.39394 2.58879e-05 17.8486 10.7302 19.372 10.7302L133 10.7301L133 12L18.9367 12C17.4133 12 0 2.63064e-05 0 2.63064e-05L2.39394 2.58879e-05ZM133 12L133 10.7301L246.628 10.7302C248.151 10.7302 263.606 2.58879e-05 263.606 2.58879e-05L266 2.63064e-05C266 2.63064e-05 248.587 12 247.063 12L133 12Z" fill="#525258"/>
</svg>
